<?xml version="1.0" encoding="UTF-8"?>
<svg id="Layer_5" data-name="Layer 5" xmlns="http://www.w3.org/2000/svg" viewBox="0 0 1200.55 854.42">
  <defs>
    <style>
      .cls-1 {
        fill: #231f20;
        stroke: #231f20;
        stroke-miterlimit: 10;
      }
    </style>
  </defs>
  <path class="cls-1" d="M591.12,20l97.61,302.39,318.82-.61v-.05c7.41-.01,13.43,5.98,13.45,13.4,0,4.75-2.45,8.93-6.17,11.32l-257.68,186.46,99.1,303.01h.02c2.31,7.04-1.54,14.62-8.58,16.92-4.7,1.54-9.64,.33-13.09-2.73l-256.54-187.14-257.58,187.9,.04,.05c-5.99,4.37-14.39,3.05-18.75-2.93-2.82-3.86-3.27-8.72-1.63-12.86l98.84-302.22L140.68,346.01v.02c-6.02-4.35-7.36-12.74-3.02-18.74,2.88-3.98,7.53-5.91,12.09-5.5l317.63,.61L565.31,18.99l12.74,4.09-12.77-4.12c2.28-7.05,9.84-10.93,16.9-8.65,4.64,1.5,7.9,5.27,8.94,9.69h0Zm66.07,337.37l-9.99,3.21-69.15-214.22-68.89,213.42c-1.09,4.66-5.28,8.12-10.27,8.11v-.04l-225.1-.43,181.88,131.61c3.95,2.52,5.86,7.48,4.33,12.14h-.02s-69.98,213.97-69.98,213.97l181.04-132.07c3.62-3.23,9.12-3.61,13.2-.64l-.03,.04,181.87,132.67-69.77-213.34c-1.75-4.37-.38-9.54,3.61-12.43h0s182.37-131.95,182.37-131.95l-224.15,.43c-4.8,.45-9.44-2.47-10.98-7.25l10.01-3.23Z"/>
</svg>