<?xml version="1.0" encoding="UTF-8"?>
<svg id="Layer_5" data-name="Layer 5" xmlns="http://www.w3.org/2000/svg" viewBox="0 0 1200.55 854.42">
  <defs>
    <style>
      .cls-1 {
        fill: #231f20;
        stroke: #231f20;
        stroke-miterlimit: 10;
      }
    </style>
  </defs>
  <path class="cls-1" d="M281.67,752.09c7.46-2.12,12.32-3.34,17.08-4.87,35.91-11.42,71.72-23.17,107.79-34.04,5.1-1.54,12.5-.72,17.07,2,83.28,49.68,172.14,64.01,266.53,42.21,178.93-41.32,296.7-222.43,261.15-400.99-37.4-187.85-214.92-309.31-404.53-276.79-247.13,42.37-368.97,326.36-228.69,533.54,5.53,8.17,6.06,14.84,2.93,23.75-13.14,37.36-25.66,74.94-39.33,115.2Zm-103.56,101.41c10.32-30.48,20.09-59.33,29.85-88.18,13.84-40.89,27.89-81.72,41.18-122.78,1.66-5.13,1.04-12.61-1.59-17.29-138.06-247.07-.69-549.44,276.43-607.89,228.07-48.12,454.6,105.51,493.16,334.44,37.55,222.97-112.88,435.3-335.75,473.9-92.49,16.03-180.65,2.95-264.25-39.76-7.26-3.71-13.42-3.88-21.06-1.42-68.37,21.97-136.86,43.56-205.32,65.25-3.62,1.14-7.27,2.15-12.64,3.74"/>
  <path class="cls-1" d="M405.12,325.18c1.33-28.44,11.82-52.6,30.39-73.9,15.4-17.68,35.68-20.57,56.77-19.26,5.38,.34,12.48,7.25,15.04,12.85,12.59,27.46,24.27,55.36,35.35,83.47,1.86,4.73,.99,12.32-1.69,16.72-6.67,10.98-14.36,21.57-23.05,31.02-7.91,8.61-9.22,15.85-2.95,26.07,33.42,54.41,79.23,93.86,138.79,117.28,8.62,3.38,15.15,1.97,20.87-5.08,9.9-12.2,20.38-23.96,29.7-36.59,6.14-8.32,13.33-11.26,22.33-7.11,28.51,13.15,57.02,26.35,84.88,40.79,4.22,2.19,7.15,11.16,6.96,16.87-1.42,42.04-30.76,73.98-72.16,82.71-23.2,4.89-44.73,1.8-67.14-4.12-97.46-25.72-170.76-83.85-227.13-165.78-18.8-27.33-37.05-54.73-43.55-87.97-1.8-9.19-2.31-18.64-3.42-27.98"/>
</svg>