<?xml version="1.0" encoding="UTF-8"?>
<svg id="Layer_5" data-name="Layer 5" xmlns="http://www.w3.org/2000/svg" viewBox="0 0 1200.55 889.19">
  <defs>
    <style>
      .cls-1 {
        fill: none;
        stroke: #231f20;
        stroke-miterlimit: 10;
        stroke-width: 46px;
      }
    </style>
  </defs>
  <path class="cls-1" d="M267.44,23c44.22,0,80.06,35.85,80.06,80.06s-35.85,80.06-80.06,80.06-80.06-35.85-80.06-80.06h0c0-44.22,35.85-80.06,80.06-80.06Zm90.81,818.68c0,13.53-10.96,24.51-24.49,24.52H201.13c-13.53,0-24.5-10.97-24.5-24.5h0V300.85c0-13.53,10.96-24.51,24.49-24.52h132.64c13.53,0,24.5,10.97,24.5,24.5h0V841.68Zm665.66,24.52h-186.5v-337.65c.66-57.08-45.08-103.89-102.16-104.55-57.08-.66-103.89,45.08-104.55,102.16,0,.8,0,1.6,0,2.39v313.13c0,13.54-10.98,24.52-24.52,24.52h-132.6c-13.54,0-24.52-10.98-24.52-24.52V288.59c0-13.53,10.97-22.14,24.52-22.14h132.6c13.54,0,24.52,8.56,24.52,22.14v54.18c17.17-21.52,38.05-39.8,61.66-53.96,14.18-8.51,29.49-14.97,45.48-19.18h.15c9.6-2.13,19.41-3.19,29.25-3.17h55.77c110.93-.02,200.88,89.89,200.9,200.82v398.91Z"/>
</svg>