<?xml version="1.0" encoding="UTF-8"?>
<svg id="Layer_5" data-name="Layer 5" xmlns="http://www.w3.org/2000/svg" viewBox="0 0 1200.55 854.42">
  <defs>
    <style>
      .cls-1 {
        fill: #231f20;
        stroke: #231f20;
        stroke-miterlimit: 10;
      }
    </style>
  </defs>
  <path class="cls-1" d="M1078.63,8.52H121.92C54.97,8.52,.5,66.14,.5,136.97V725.05c0,70.83,54.47,128.45,121.42,128.45h956.71c66.95,0,121.42-57.62,121.42-128.45V136.97c0-70.83-54.47-128.45-121.42-128.45ZM121.92,70.42h956.71c19.02,0,36.06,9.01,47.6,23.17l-439.84,311.7-1.41,1.06c-61.9,49.72-144.92-1.39-145.85-1.97L65.73,107.22c10.35-21.78,31.62-36.8,56.19-36.8Zm956.71,721.18H121.92c-34.68,0-62.9-29.85-62.9-66.55V174.98L509.1,457.52c3.11,1.98,52.45,32.79,112.44,32.79,31.48,0,65.9-8.48,98.1-34.07l421.89-298.98V725.05c0,36.69-28.22,66.55-62.9,66.55Z"/>
</svg>