<?xml version="1.0" encoding="UTF-8"?>
<svg id="Layer_5" data-name="Layer 5" xmlns="http://www.w3.org/2000/svg" viewBox="0 0 1200.55 854.42">
  <defs>
    <style>
      .cls-1 {
        fill: #231f20;
        stroke: #231f20;
        stroke-miterlimit: 10;
        stroke-width: 40px;
      }
    </style>
  </defs>
  <path class="cls-1" d="M722.06,834.42h0c-19.83,0-28.76-14.79-28.76-28.6,0-4.39,0-12.35,.16-22.76,.16-21.12,.32-52.98,.32-89.52,0-43.39-17.39-63.22-24.86-69.55-2.44-2.12-3.42-5.53-2.44-8.61,.97-3.09,3.59-5.37,6.83-5.7,83.36-9.26,178.9-39.64,178.9-193.84,0-40.3-13.32-75.41-39.8-104.33-2.12-2.27-2.77-5.68-1.46-8.45,4.21-10.39,16.07-47.28-2.44-97.97-.83,0-1.96-.16-3.09-.16-13.99,0-45.34,5.36-98.47,41.43-1.94,1.3-4.39,1.78-6.83,1.14-31.19-8.77-64.82-13.32-99.93-13.48-34.77,.16-68.4,4.71-99.93,13.48-2.27,.65-4.71,.16-6.81-1.14-53.14-36.08-84.5-41.43-98.47-41.43-1.31,0-2.28,0-3.25,.16-18.52,50.69-6.67,87.58-2.43,97.81,1.13,2.93,.65,6.18-1.47,8.61-26.48,29.08-39.8,64.19-39.8,104.33,0,154.04,95.38,184.58,178.58,194.17,3.25,.32,5.84,2.61,6.81,5.7,.97,3.09,0,6.33-2.43,8.61-6.99,6.01-19.18,20.64-23.24,49.72-.32,2.77-2.1,5.19-4.71,6.34-11.54,5.2-29.57,11.36-50.05,11.36-33.15,0-60.46-16.9-79.13-48.76,0,0,0-.16-.16-.16-.16-.32-19.99-35.25-55.58-38.02-3.4,0-6.65,.49-8.77,.99,1.47,1.78,4.55,4.53,10.41,8.77,4.71,2.43,30.7,17.87,48.74,63.85,0,.16,.18,.49,.18,.65,.65,2.12,17.55,53.79,88.55,53.79,12.19,0,25.35-1.46,39.33-4.55,2.43-.49,4.86,0,6.82,1.62,1.96,1.64,3.09,3.9,3.09,6.35,.16,18.03,.33,33.8,.33,45.98,.16,11.06,.16,19.02,.16,23.73,0,13.81-9.1,28.44-28.92,28.44-2.61,0-5.52-.34-8.45-.83-.32,0-.81-.16-1.13-.32-82.22-27.45-152.75-79.13-204.25-149.49-52.17-71.98-79.96-157.13-79.96-246.49,0-111.47,43.22-216.27,121.88-295.08C384.56,63.38,489.05,20,600.18,20s215.63,43.38,294.29,122.2c78.63,78.81,121.86,183.61,121.86,295.08,0,89.36-27.79,174.52-80.1,246.33-51.36,70.36-121.88,122.04-203.94,149.65-.32,.16-.65,.16-.97,.32-3.4,.49-6.51,.83-9.26,.83Zm-31.37-210.43c12.53,17.38,19.34,41.76,19.34,69.71,0,36.56-.16,68.56-.32,89.52,0,10.41-.16,18.21-.16,22.6s1.62,12.35,12.51,12.35c1.62,0,3.42-.16,5.36-.49,162.97-54.94,272.51-207.68,272.51-380.4,0-221.16-179.39-401.04-399.74-401.04S200.46,216.12,200.46,437.29c0,172.72,109.68,325.63,272.83,380.4,1.78,.32,3.4,.49,5.03,.49,11.54,0,12.67-8.61,12.67-12.19,0-4.55,0-12.51-.16-23.57-.16-9.9-.16-22.26-.32-36.24-11.54,1.96-22.6,3.09-32.99,3.09-43.38,0-69.38-17.54-83.35-32.34-14.31-14.94-19.67-30.06-20.64-32.66-16.9-42.89-40.95-55.08-41.11-55.24-.32-.16-.81-.32-1.13-.65-10.57-7.16-22.11-16.9-18.7-27.63,3.25-10.39,17.71-12.03,26-12.03h.82c44.21,3.09,67.27,43.39,68.9,46.31,15.75,26.98,37.52,40.63,64.99,40.63,15.77,0,30.38-4.55,39.32-8.29,2.93-16.74,8.77-31.35,16.91-42.89-50.55-7.48-87.74-22.26-115.88-45.98-40.94-34.62-61.73-89.22-61.73-162.17,0-42.74,13.65-80.12,40.79-111.63-5.7-16.57-14.96-57.04,5.68-109.53,.97-2.26,2.77-4.06,5.03-4.71,.65-.16,4.55-1.3,11.54-1.3,15.6,0,49.56,5.52,104.48,42.25,31.86-8.45,65.65-12.83,100.58-13,35.27,.16,69.07,4.55,100.76,13.16,54.92-36.56,88.88-42.25,104.48-42.25,6.99,0,10.88,1.13,11.54,1.29,2.27,.81,4.22,2.44,5.03,4.71,20.64,52.33,11.54,92.96,5.86,109.53,26.97,31.19,40.77,68.73,40.77,111.63,0,73.11-20.8,127.72-61.91,162.33-35.09,29.09-80.43,40.14-115.86,45.18Z"/>
</svg>